#OBJ
#T-FLEX CAD ObjGenerator generate date:20.11.2024 23:59:6
v 0.625 0.541 0.019999
v 0.625 0.764999 0.019999
v 0.675 0.721 0.019999
v 0.634999 0.764999 0.019999
v 0.675 0.725 0.019999
v 0.634999 0.541 0.019999
v 0.675 0.721 0.208
v 0.625 0.764999 0.208
v 0.625 0.541 0.208
v 0.675 0.725 0.208
v 0.634999 0.764999 0.208
v 0.634999 0.541 0.208
v 0.634999 0.764999 0.208
v 0.675 0.725 0.208
v 0.675 0.725 0.019999
v 0.634999 0.764999 0.019999
v 0.675 0.721 0.208
v 0.634999 0.541 0.208
v 0.634999 0.541 0.019999
v 0.675 0.721 0.019999
v 0.625 0.541 0.208
v 0.625 0.541 0.019999
v 0.634999 0.541 0.019999
v 0.634999 0.541 0.208
v 0.675 0.725 0.208
v 0.675 0.721 0.208
v 0.675 0.721 0.019999
v 0.675 0.725 0.019999
v 0.634999 0.764999 0.208
v 0.634999 0.764999 0.019999
v 0.625 0.764999 0.019999
v 0.625 0.764999 0.208
v 0.6125 0.787999 0.261999
v 0.0125 0.787999 0.261999
v 0.0125 0.012 0.261999
v 0.6125 0.012 0.261999
v 0.0125 0.787999 0.25
v 0.0125 0.787999 0.261999
v 0.6125 0.787999 0.261999
v 0.6125 0.787999 0.25
v 0.6125 0.787999 0.25
v 0.6125 0.787999 0.261999
v 0.6125 0.012 0.261999
v 0.6125 0.012 0.25
v 0.6125 0.012 0.25
v 0.6125 0.012 0.261999
v 0.0125 0.012 0.261999
v 0.0125 0.012 0.25
v 0.0125 0.012 0.25
v 0.0125 0.012 0.261999
v 0.0125 0.787999 0.261999
v 0.0125 0.787999 0.25
v 0.625 0 0
v 0 0 0
v 0 0.8 0
v 0.625 0.8 0
v 0 0 0.25
v 0.0125 0.012 0.25
v 0.0125 0.787999 0.25
v 0.625 0 0.25
v 0.6125 0.012 0.25
v 0.625 0.8 0.25
v 0.6125 0.787999 0.25
v 0 0.8 0.25
v 0.625 0.8 0.25
v 0.625 0.8 0
v 0 0.8 0
v 0 0.8 0.25
v 0 0 0.25
v 0 0 0
v 0.625 0 0
v 0.625 0 0.25
v 0 0 0
v 0 0 0.25
v 0 0.8 0.25
v 0 0.8 0
v 0.625 0.8 0
v 0.625 0.764999 0.019999
v 0.625 0.541 0.019999
v 0.625 0.541 0.208
v 0.625 0.764999 0.208
v 0.625 0.8 0.25
v 0.625 0 0
v 0.625 0 0.25
vn 0 0 -1
vn 0 0 -1
vn 0 0 -1
vn 0 0 -1
vn 0 0 -1
vn 0 0 -1
vn 0 0 1
vn 0 0 1
vn 0 0 1
vn 0 0 1
vn 0 0 1
vn 0 0 1
vn 0.707106 0.707106 0
vn 0.707106 0.707106 0
vn 0.707106 0.707106 0
vn 0.707106 0.707106 0
vn 0.976187 -0.21693 0
vn 0.976187 -0.21693 0
vn 0.976187 -0.21693 0
vn 0.976187 -0.21693 0
vn 0 -1 0
vn 0 -1 0
vn 0 -1 0
vn 0 -1 0
vn 1 0 0
vn 1 0 0
vn 1 0 0
vn 1 0 0
vn 0 1 0
vn 0 1 0
vn 0 1 0
vn 0 1 0
vn 0 0 1
vn 0 0 1
vn 0 0 1
vn 0 0 1
vn -0 1 0
vn -0 1 0
vn -0 1 0
vn -0 1 0
vn 1 0 0
vn 1 0 0
vn 1 0 0
vn 1 0 0
vn 0 -1 0
vn 0 -1 0
vn 0 -1 0
vn 0 -1 0
vn -1 -0 0
vn -1 -0 0
vn -1 -0 0
vn -1 -0 0
vn 0 0 -1
vn 0 0 -1
vn 0 0 -1
vn 0 0 -1
vn 0 0 1
vn 0 0 1
vn 0 0 1
vn 0 0 1
vn 0 0 1
vn 0 0 1
vn 0 0 1
vn 0 0 1
vn 0 1 0
vn 0 1 0
vn 0 1 0
vn 0 1 0
vn 0 -1 0
vn 0 -1 0
vn 0 -1 0
vn 0 -1 0
vn -1 0 0
vn -1 0 0
vn -1 0 0
vn -1 0 0
vn 1 0 0
vn 1 0 0
vn 1 0 0
vn 1 0 0
vn 1 0 0
vn 1 0 0
vn 1 0 0
vn 1 0 0
f 1//1 2//2 3//3
f 2//2 4//4 5//5
f 5//5 3//3 2//2
f 3//3 6//6 1//1
f 7//7 8//8 9//9
f 7//7 10//10 11//11
f 9//9 12//12 7//7
f 11//11 8//8 7//7
f 13//13 14//14 15//15
f 15//15 16//16 13//13
f 17//17 18//18 19//19
f 19//19 20//20 17//17
f 21//21 22//22 23//23
f 23//23 24//24 21//21
f 25//25 26//26 27//27
f 27//27 28//28 25//25
f 29//29 30//30 31//31
f 31//31 32//32 29//29
f 33//33 34//34 35//35
f 35//35 36//36 33//33
f 37//37 38//38 39//39
f 39//39 40//40 37//37
f 41//41 42//42 43//43
f 43//43 44//44 41//41
f 45//45 46//46 47//47
f 47//47 48//48 45//45
f 49//49 50//50 51//51
f 51//51 52//52 49//49
f 53//53 54//54 55//55
f 55//55 56//56 53//53
f 57//57 58//58 59//59
f 60//60 61//61 58//58
f 58//58 57//57 60//60
f 60//60 62//62 63//63
f 64//64 59//59 63//63
f 59//59 64//64 57//57
f 63//63 62//62 64//64
f 63//63 61//61 60//60
f 65//65 66//66 67//67
f 67//67 68//68 65//65
f 69//69 70//70 71//71
f 71//71 72//72 69//69
f 73//73 74//74 75//75
f 75//75 76//76 73//73
f 77//77 78//78 79//79
f 80//80 81//81 82//82
f 79//79 83//83 77//77
f 81//81 78//78 77//77
f 80//80 84//84 83//83
f 77//77 82//82 81//81
f 83//83 79//79 80//80
f 82//82 84//84 80//80
